<?xml version="1.0" encoding="iso-8859-1"?>
<!-- Generator: Adobe Illustrator 16.0.0, SVG Export Plug-In . SVG Version: 6.00 Build 0)  -->
<!DOCTYPE svg PUBLIC "-//W3C//DTD SVG 1.1//EN" "http://www.w3.org/Graphics/SVG/1.1/DTD/svg11.dtd">
<svg xmlns="http://www.w3.org/2000/svg" xmlns:xlink="http://www.w3.org/1999/xlink" version="1.1" id="Capa_1" x="0px" y="0px" width="512px" height="512px" viewBox="0 0 390.126 390.125" style="enable-background:new 0 0 390.126 390.125;" xml:space="preserve">
<g>
	<g>
		<path d="M132.64,177.859c31.162,0,56.508-34.014,56.508-75.834c0-41.817-25.347-75.841-56.508-75.841    c-31.153,0-56.502,34.023-56.502,75.841C76.138,143.845,101.487,177.859,132.64,177.859z" fill="#933EC5"/>
		<path d="M300.246,251.628c-1.159-1.579-2.27-3.068-2.864-4.348c-12.635-27.046-47.27-58.931-103.382-59.724l-2.159-0.012    c-55.25,0-89.627,30.197-103.381,58.469c-0.475,0.967-1.52,2.222-2.627,3.549c-1.31,1.555-2.606,3.146-3.714,4.875    c-11.619,18.075-17.543,38.426-16.669,57.299c0.916,20.037,9.305,36.131,23.581,45.312c5.768,3.705,11.992,5.572,18.522,5.572    c13.465,0,25.793-7.584,40.079-16.368c9.083-5.598,18.465-11.374,28.886-15.697c1.168-0.385,5.954-0.973,13.781-0.973    c9.307,0,15.991,0.828,17.419,1.321c10.173,4.491,19.107,10.382,27.748,16.068c13.247,8.731,25.755,16.97,39.326,16.97    c5.824,0,11.469-1.537,16.795-4.563c29.382-16.693,34.979-62.492,12.484-102.088C302.942,255.303,301.597,253.448,300.246,251.628    z" fill="#933EC5"/>
		<path d="M252.796,177.859c31.147,0,56.499-34.014,56.499-75.834c0-41.817-25.352-75.841-56.499-75.841    c-31.165,0-56.511,34.023-56.511,75.841C196.285,143.845,221.631,177.859,252.796,177.859z" fill="#933EC5"/>
		<path d="M345.595,138.918c-24.975,0-44.521,25.901-44.521,58.967c0,33.051,19.558,58.955,44.521,58.955    c24.961,0,44.531-25.904,44.531-58.955C390.126,164.82,370.568,138.918,345.595,138.918z" fill="#933EC5"/>
		<path d="M89.048,197.885c0-33.065-19.558-58.967-44.522-58.967C19.561,138.918,0,164.82,0,197.885    c0,33.051,19.561,58.955,44.526,58.955C69.491,256.84,89.048,230.936,89.048,197.885z" fill="#933EC5"/>
	</g>
</g>
<g>
</g>
<g>
</g>
<g>
</g>
<g>
</g>
<g>
</g>
<g>
</g>
<g>
</g>
<g>
</g>
<g>
</g>
<g>
</g>
<g>
</g>
<g>
</g>
<g>
</g>
<g>
</g>
<g>
</g>
</svg>
