<?xml version="1.0" encoding="UTF-8"?>
<svg xmlns="http://www.w3.org/2000/svg" xmlns:xlink="http://www.w3.org/1999/xlink" width="20pt" height="20pt" viewBox="0 0 20 20" version="1.1">
<g id="surface1">
<path style=" stroke:none;fill-rule:nonzero;fill:rgb(0%,0%,0%);fill-opacity:1;" d="M 10 8.75 C 6.898438 8.75 2.5 13.546875 2.5 16.570312 C 2.5 17.9375 3.546875 18.75 5.300781 18.75 C 7.210938 18.75 8.46875 17.769531 10 17.769531 C 11.542969 17.769531 12.804688 18.75 14.699219 18.75 C 16.453125 18.75 17.5 17.9375 17.5 16.570312 C 17.5 13.546875 13.101562 8.75 10 8.75 Z M 4.246094 8.257812 C 3.839844 6.902344 2.589844 6.027344 1.453125 6.300781 C 0.3125 6.570312 -0.277344 7.890625 0.128906 9.242188 C 0.535156 10.59375 1.785156 11.472656 2.921875 11.199219 C 4.0625 10.929688 4.652344 9.609375 4.246094 8.257812 Z M 7.554688 7.445312 C 8.765625 7.128906 9.371094 5.496094 8.90625 3.796875 C 8.445312 2.101562 7.089844 0.984375 5.882812 1.304688 C 4.671875 1.621094 4.066406 3.253906 4.53125 4.949219 C 4.992188 6.648438 6.347656 7.765625 7.554688 7.445312 Z M 18.546875 6.300781 C 17.410156 6.027344 16.160156 6.902344 15.753906 8.257812 C 15.347656 9.609375 15.9375 10.929688 17.078125 11.199219 C 18.214844 11.472656 19.464844 10.597656 19.871094 9.242188 C 20.277344 7.890625 19.6875 6.570312 18.546875 6.300781 Z M 12.445312 7.445312 C 13.652344 7.761719 15.007812 6.648438 15.46875 4.949219 C 15.933594 3.253906 15.328125 1.621094 14.117188 1.304688 C 12.910156 0.984375 11.554688 2.101562 11.09375 3.796875 C 10.628906 5.496094 11.234375 7.128906 12.445312 7.445312 Z M 12.445312 7.445312 "/>
</g>
</svg>
