<?xml version="1.0" encoding="UTF-8"?>
<svg xmlns="http://www.w3.org/2000/svg" xmlns:xlink="http://www.w3.org/1999/xlink" width="20pt" height="20pt" viewBox="0 0 20 20" version="1.1">
<g id="surface1">
<path style=" stroke:none;fill-rule:nonzero;fill:rgb(24.705882%,41.176471%,12.941176%);fill-opacity:1;" d="M 6.800781 9.117188 C 8.398438 9.117188 9.695312 7.375 9.695312 5.230469 C 9.695312 3.085938 8.398438 1.34375 6.800781 1.34375 C 5.203125 1.34375 3.902344 3.085938 3.902344 5.230469 C 3.902344 7.375 5.203125 9.117188 6.800781 9.117188 Z M 6.800781 9.117188 "/>
<path style=" stroke:none;fill-rule:nonzero;fill:rgb(24.705882%,41.176471%,12.941176%);fill-opacity:1;" d="M 15.390625 12.898438 C 15.332031 12.820312 15.277344 12.742188 15.246094 12.675781 C 14.597656 11.289062 12.820312 9.65625 9.945312 9.613281 L 9.835938 9.613281 C 7.003906 9.613281 5.238281 11.164062 4.535156 12.613281 C 4.511719 12.660156 4.457031 12.726562 4.398438 12.792969 C 4.332031 12.875 4.265625 12.957031 4.210938 13.042969 C 3.613281 13.96875 3.308594 15.015625 3.355469 15.980469 C 3.402344 17.007812 3.832031 17.832031 4.5625 18.304688 C 4.859375 18.496094 5.179688 18.589844 5.515625 18.589844 C 6.203125 18.589844 6.835938 18.199219 7.570312 17.75 C 8.035156 17.464844 8.515625 17.167969 9.050781 16.945312 C 9.109375 16.925781 9.355469 16.894531 9.753906 16.894531 C 10.234375 16.894531 10.574219 16.9375 10.648438 16.964844 C 11.171875 17.195312 11.628906 17.496094 12.070312 17.789062 C 12.75 18.234375 13.390625 18.65625 14.085938 18.65625 C 14.386719 18.65625 14.675781 18.578125 14.949219 18.421875 C 16.453125 17.566406 16.742188 15.21875 15.589844 13.191406 C 15.53125 13.089844 15.460938 12.992188 15.390625 12.898438 Z M 15.390625 12.898438 "/>
<path style=" stroke:none;fill-rule:nonzero;fill:rgb(24.705882%,41.176471%,12.941176%);fill-opacity:1;" d="M 12.960938 9.117188 C 14.554688 9.117188 15.855469 7.375 15.855469 5.230469 C 15.855469 3.085938 14.554688 1.34375 12.960938 1.34375 C 11.363281 1.34375 10.0625 3.085938 10.0625 5.230469 C 10.0625 7.375 11.363281 9.117188 12.960938 9.117188 Z M 12.960938 9.117188 "/>
<path style=" stroke:none;fill-rule:nonzero;fill:rgb(24.705882%,41.176471%,12.941176%);fill-opacity:1;" d="M 17.71875 7.121094 C 16.4375 7.121094 15.433594 8.449219 15.433594 10.144531 C 15.433594 11.839844 16.4375 13.167969 17.71875 13.167969 C 18.996094 13.167969 20 11.839844 20 10.144531 C 20 8.449219 18.996094 7.121094 17.71875 7.121094 Z M 17.71875 7.121094 "/>
<path style=" stroke:none;fill-rule:nonzero;fill:rgb(24.705882%,41.176471%,12.941176%);fill-opacity:1;" d="M 4.566406 10.144531 C 4.566406 8.449219 3.5625 7.121094 2.28125 7.121094 C 1.003906 7.121094 0 8.449219 0 10.144531 C 0 11.839844 1.003906 13.167969 2.28125 13.167969 C 3.5625 13.167969 4.566406 11.839844 4.566406 10.144531 Z M 4.566406 10.144531 "/>
</g>
</svg>
