<?xml version="1.0" encoding="UTF-8"?>
<svg xmlns="http://www.w3.org/2000/svg" xmlns:xlink="http://www.w3.org/1999/xlink" width="32pt" height="32pt" viewBox="0 0 32 32" version="1.1">
<g id="surface1">
<path style=" stroke:none;fill-rule:nonzero;fill:rgb(57.647059%,24.313725%,77.254902%);fill-opacity:1;" d="M 10.878906 14.589844 C 13.4375 14.589844 15.515625 11.800781 15.515625 8.367188 C 15.515625 4.9375 13.4375 2.148438 10.878906 2.148438 C 8.324219 2.148438 6.246094 4.9375 6.246094 8.367188 C 6.246094 11.800781 8.324219 14.589844 10.878906 14.589844 Z M 10.878906 14.589844 "/>
<path style=" stroke:none;fill-rule:nonzero;fill:rgb(57.647059%,24.313725%,77.254902%);fill-opacity:1;" d="M 24.628906 20.640625 C 24.53125 20.511719 24.441406 20.386719 24.394531 20.28125 C 23.355469 18.066406 20.515625 15.449219 15.914062 15.382812 L 15.734375 15.382812 C 11.203125 15.382812 8.382812 17.859375 7.257812 20.179688 C 7.21875 20.257812 7.132812 20.363281 7.039062 20.46875 C 6.933594 20.597656 6.828125 20.726562 6.734375 20.871094 C 5.78125 22.351562 5.296875 24.023438 5.367188 25.570312 C 5.445312 27.214844 6.132812 28.535156 7.304688 29.285156 C 7.777344 29.589844 8.285156 29.742188 8.820312 29.742188 C 9.925781 29.742188 10.9375 29.121094 12.109375 28.402344 C 12.855469 27.941406 13.625 27.46875 14.480469 27.113281 C 14.574219 27.082031 14.96875 27.035156 15.609375 27.035156 C 16.371094 27.035156 16.921875 27.101562 17.039062 27.140625 C 17.871094 27.511719 18.605469 27.992188 19.3125 28.460938 C 20.402344 29.175781 21.425781 29.851562 22.539062 29.851562 C 23.015625 29.851562 23.480469 29.726562 23.917969 29.476562 C 26.328125 28.109375 26.785156 24.351562 24.941406 21.105469 C 24.847656 20.941406 24.738281 20.789062 24.628906 20.640625 Z M 24.628906 20.640625 "/>
<path style=" stroke:none;fill-rule:nonzero;fill:rgb(57.647059%,24.313725%,77.254902%);fill-opacity:1;" d="M 20.734375 14.589844 C 23.289062 14.589844 25.371094 11.800781 25.371094 8.367188 C 25.371094 4.9375 23.289062 2.148438 20.734375 2.148438 C 18.179688 2.148438 16.101562 4.9375 16.101562 8.367188 C 16.101562 11.800781 18.179688 14.589844 20.734375 14.589844 Z M 20.734375 14.589844 "/>
<path style=" stroke:none;fill-rule:nonzero;fill:rgb(57.647059%,24.313725%,77.254902%);fill-opacity:1;" d="M 28.347656 11.394531 C 26.296875 11.394531 24.695312 13.519531 24.695312 16.230469 C 24.695312 18.941406 26.300781 21.066406 28.347656 21.066406 C 30.394531 21.066406 32 18.941406 32 16.230469 C 32 13.519531 30.394531 11.394531 28.347656 11.394531 Z M 28.347656 11.394531 "/>
<path style=" stroke:none;fill-rule:nonzero;fill:rgb(57.647059%,24.313725%,77.254902%);fill-opacity:1;" d="M 7.304688 16.230469 C 7.304688 13.519531 5.699219 11.394531 3.652344 11.394531 C 1.605469 11.394531 0 13.519531 0 16.230469 C 0 18.941406 1.605469 21.066406 3.652344 21.066406 C 5.699219 21.066406 7.304688 18.941406 7.304688 16.230469 Z M 7.304688 16.230469 "/>
</g>
</svg>
